<?xml version="1.0" encoding="UTF-8" standalone="no"?>
<!DOCTYPE svg PUBLIC "-//W3C//DTD SVG 1.1//EN"
 "http://www.w3.org/Graphics/SVG/1.1/DTD/svg11.dtd">
<!-- Generated by graphviz version 12.2.0 (0)
 -->
<!-- Title: nixstore Pages: 1 -->
<svg width="1919pt" height="620pt"
 viewBox="0.00 0.00 1918.65 620.00" xmlns="http://www.w3.org/2000/svg" xmlns:xlink="http://www.w3.org/1999/xlink">
<g id="graph0" class="graph" transform="scale(1 1) rotate(0) translate(4 616)">
<title>nixstore</title>
<polygon fill="white" stroke="none" points="-4,4 -4,-616 1914.65,-616 1914.65,4 -4,4"/>
<!-- N13 -->
<g id="node1" class="node">
<title>N13</title>
<polygon fill="#448ffe" stroke="#448ffe" points="583.53,-298.54 583.53,-313.46 501.69,-324 385.96,-324 304.12,-313.46 304.12,-298.54 385.96,-288 501.69,-288 583.53,-298.54"/>
<polygon fill="none" stroke="#448ffe" points="587.53,-295.03 587.53,-316.97 501.95,-328 385.7,-328 300.12,-316.97 300.12,-295.03 385.7,-284 501.95,-284 587.53,-295.03"/>
<polygon fill="none" stroke="#448ffe" points="591.53,-291.51 591.53,-320.49 502.21,-332 385.44,-332 296.12,-320.49 296.12,-291.51 385.44,-280 502.21,-280 591.53,-291.51"/>
<text text-anchor="middle" x="443.82" y="-301.32" font-family="Times,serif" font-size="14.00" fill="#000000">{transient} (341.7 MB)</text>
</g>
<!-- N4 -->
<g id="node13" class="node">
<title>N4</title>
<polygon fill="#f26114" stroke="#f26114" points="1305.27,-324 1082.27,-324 1082.27,-288 1305.27,-288 1305.27,-324"/>
<text text-anchor="middle" x="1193.77" y="-301.32" font-family="Times,serif" font-size="14.00" fill="#000000">home&#45;manager&#45;path (6.4 GB)</text>
</g>
<!-- N13&#45;&gt;N4 -->
<g id="edge10" class="edge">
<title>N13&#45;&gt;N4</title>
<path fill="none" stroke="black" d="M591.7,-306C731.53,-306 939.53,-306 1070.55,-306"/>
<polygon fill="black" stroke="black" points="1070.3,-309.5 1080.3,-306 1070.3,-302.5 1070.3,-309.5"/>
</g>
<!-- N12 -->
<g id="node2" class="node">
<title>N12</title>
<polygon fill="#30123b" stroke="#30123b" points="844.91,-508.54 844.91,-523.46 609.96,-534 277.69,-534 42.74,-523.46 42.74,-508.54 277.69,-498 609.96,-498 844.91,-508.54"/>
<polygon fill="none" stroke="#30123b" points="848.91,-504.72 848.91,-527.28 610.05,-538 277.6,-538 38.74,-527.28 38.74,-504.72 277.6,-494 610.05,-494 848.91,-504.72"/>
<polygon fill="none" stroke="#30123b" points="852.91,-500.9 852.91,-531.1 610.14,-542 277.51,-542 34.74,-531.1 34.74,-500.9 277.51,-490 610.14,-490 852.91,-500.9"/>
<text text-anchor="middle" x="443.82" y="-511.32" font-family="Times,serif" font-size="14.00" fill="#ffffff">/home/ryanl/.local/state/nix/profiles/home&#45;manager&#45;57&#45;link, today (58 B)</text>
</g>
<!-- N3 -->
<g id="node12" class="node">
<title>N3</title>
<polygon fill="#4cf97f" stroke="#4cf97f" points="1677.15,-394 1528.4,-394 1528.4,-358 1677.15,-358 1677.15,-394"/>
<text text-anchor="middle" x="1602.77" y="-371.32" font-family="Times,serif" font-size="14.00" fill="#000000">git&#45;2.47.0 (1.7 GB)</text>
</g>
<!-- N12&#45;&gt;N3 -->
<g id="edge9" class="edge">
<title>N12&#45;&gt;N3</title>
<path fill="none" stroke="black" d="M847.37,-500.15C1036.12,-487.21 1263.16,-463.71 1463.9,-421 1490.28,-415.39 1518.71,-406.6 1542.87,-398.27"/>
<polygon fill="black" stroke="black" points="1543.94,-401.6 1552.22,-394.99 1541.62,-395 1543.94,-401.6"/>
</g>
<!-- N11 -->
<g id="node3" class="node">
<title>N11</title>
<polygon fill="#30123b" stroke="#30123b" points="879.65,-438.54 879.65,-453.46 624.35,-464 263.3,-464 8,-453.46 8,-438.54 263.3,-428 624.35,-428 879.65,-438.54"/>
<polygon fill="none" stroke="#30123b" points="883.65,-434.71 883.65,-457.29 624.43,-468 263.22,-468 4,-457.29 4,-434.71 263.22,-424 624.43,-424 883.65,-434.71"/>
<polygon fill="none" stroke="#30123b" points="887.65,-430.87 887.65,-461.13 624.51,-472 263.14,-472 0,-461.13 0,-430.87 263.14,-420 624.51,-420 887.65,-430.87"/>
<text text-anchor="middle" x="443.82" y="-441.32" font-family="Times,serif" font-size="14.00" fill="#ffffff">/home/ryanl/.local/state/home&#45;manager/gcroots/current&#45;home, today (72.0 KB)</text>
</g>
<!-- N11&#45;&gt;N3 -->
<g id="edge8" class="edge">
<title>N11&#45;&gt;N3</title>
<path fill="none" stroke="black" d="M841.34,-428.48C1030.04,-419.05 1258.76,-406.04 1463.9,-390 1481.02,-388.66 1499.31,-386.98 1516.78,-385.25"/>
<polygon fill="black" stroke="black" points="1517.02,-388.75 1526.62,-384.27 1516.33,-381.78 1517.02,-388.75"/>
</g>
<!-- N10 -->
<g id="node4" class="node">
<title>N10</title>
<polygon fill="#3f3b97" stroke="#3f3b97" points="819.86,-368.54 819.86,-383.46 599.58,-394 288.07,-394 67.79,-383.46 67.79,-368.54 288.07,-358 599.58,-358 819.86,-368.54"/>
<polygon fill="none" stroke="#3f3b97" points="823.86,-364.73 823.86,-387.27 599.68,-398 287.97,-398 63.79,-387.27 63.79,-364.73 287.97,-354 599.68,-354 823.86,-364.73"/>
<polygon fill="none" stroke="#3f3b97" points="827.86,-360.92 827.86,-391.08 599.77,-402 287.88,-402 59.79,-391.08 59.79,-360.92 287.88,-350 599.77,-350 827.86,-360.92"/>
<text text-anchor="middle" x="443.82" y="-371.32" font-family="Times,serif" font-size="14.00" fill="#ffffff">/home/ryanl/.local/state/nix/profiles/profile&#45;85&#45;link, today (32.4 MB)</text>
</g>
<!-- N10&#45;&gt;N3 -->
<g id="edge7" class="edge">
<title>N10&#45;&gt;N3</title>
<path fill="none" stroke="black" d="M828.06,-376C1073.87,-376 1372.95,-376 1516.65,-376"/>
<polygon fill="black" stroke="black" points="1516.46,-379.5 1526.46,-376 1516.46,-372.5 1516.46,-379.5"/>
</g>
<!-- N9 -->
<g id="node5" class="node">
<title>N9</title>
<polygon fill="#351e58" stroke="#351e58" points="648.45,-228.54 648.45,-243.46 528.58,-254 359.07,-254 239.2,-243.46 239.2,-228.54 359.07,-218 528.58,-218 648.45,-228.54"/>
<polygon fill="none" stroke="#351e58" points="652.45,-224.88 652.45,-247.12 528.76,-258 358.89,-258 235.2,-247.12 235.2,-224.88 358.89,-214 528.76,-214 652.45,-224.88"/>
<polygon fill="none" stroke="#351e58" points="656.45,-221.22 656.45,-250.78 528.93,-262 358.72,-262 231.2,-250.78 231.2,-221.22 358.72,-210 528.93,-210 656.45,-221.22"/>
<text text-anchor="middle" x="443.82" y="-231.32" font-family="Times,serif" font-size="14.00" fill="#ffffff">/run/booted&#45;system, today (3.8 MB)</text>
</g>
<!-- N9&#45;&gt;N4 -->
<g id="edge5" class="edge">
<title>N9&#45;&gt;N4</title>
<path fill="none" stroke="black" d="M656.69,-251.21C729.9,-256.88 812.42,-263.72 887.65,-271 947.98,-276.84 1014.89,-284.4 1070.64,-290.99"/>
<polygon fill="black" stroke="black" points="1070.15,-294.46 1080.5,-292.16 1070.98,-287.51 1070.15,-294.46"/>
</g>
<!-- N5 -->
<g id="node14" class="node">
<title>N5</title>
<polygon fill="#18dcc4" stroke="#18dcc4" points="1463.9,-184 923.65,-184 923.65,-148 1463.9,-148 1463.9,-184"/>
<text text-anchor="middle" x="1193.77" y="-161.32" font-family="Times,serif" font-size="14.00" fill="#000000">shared:nixos&#45;system&#45;bagelmachine&#45;25.05.20250104.8f3e1f8 (1008.4 MB)</text>
</g>
<!-- N9&#45;&gt;N5 -->
<g id="edge4" class="edge">
<title>N9&#45;&gt;N5</title>
<path fill="none" stroke="black" d="M656.69,-220.79C729.9,-215.12 812.42,-208.28 887.65,-201 933.86,-196.52 983.93,-191.05 1029.9,-185.76"/>
<polygon fill="black" stroke="black" points="1030.14,-189.26 1039.67,-184.63 1029.34,-182.3 1030.14,-189.26"/>
</g>
<!-- N8 -->
<g id="node6" class="node">
<title>N8</title>
<polygon fill="#3a2d7a" stroke="#3a2d7a" points="664.39,-158.54 664.39,-173.46 535.19,-184 352.46,-184 223.25,-173.46 223.25,-158.54 352.46,-148 535.19,-148 664.39,-158.54"/>
<polygon fill="none" stroke="#3a2d7a" points="668.39,-154.86 668.39,-177.14 535.35,-188 352.3,-188 219.25,-177.14 219.25,-154.86 352.3,-144 535.35,-144 668.39,-154.86"/>
<polygon fill="none" stroke="#3a2d7a" points="672.39,-151.17 672.39,-180.83 535.51,-192 352.14,-192 215.25,-180.83 215.25,-151.17 352.14,-140 535.51,-140 672.39,-151.17"/>
<text text-anchor="middle" x="443.82" y="-161.32" font-family="Times,serif" font-size="14.00" fill="#ffffff">NixOS generation 83, today (12.9 MB)</text>
</g>
<!-- N8&#45;&gt;N5 -->
<g id="edge3" class="edge">
<title>N8&#45;&gt;N5</title>
<path fill="none" stroke="black" d="M672.79,-166C748.3,-166 833.24,-166 912.23,-166"/>
<polygon fill="black" stroke="black" points="911.82,-169.5 921.82,-166 911.82,-162.5 911.82,-169.5"/>
</g>
<!-- N7 -->
<g id="node7" class="node">
<title>N7</title>
<polygon fill="#30123b" stroke="#30123b" points="643.32,-88.54 643.32,-103.46 526.46,-114 361.19,-114 244.32,-103.46 244.32,-88.54 361.19,-78 526.46,-78 643.32,-88.54"/>
<polygon fill="none" stroke="#30123b" points="647.32,-84.89 647.32,-107.11 526.64,-118 361.01,-118 240.32,-107.11 240.32,-84.89 361.01,-74 526.64,-74 647.32,-84.89"/>
<polygon fill="none" stroke="#30123b" points="651.32,-81.23 651.32,-110.77 526.82,-122 360.83,-122 236.32,-110.77 236.32,-81.23 360.83,-70 526.82,-70 651.32,-81.23"/>
<text text-anchor="middle" x="443.82" y="-91.33" font-family="Times,serif" font-size="14.00" fill="#ffffff">NixOS generation 84, today (36 B)</text>
</g>
<!-- N7&#45;&gt;N5 -->
<g id="edge2" class="edge">
<title>N7&#45;&gt;N5</title>
<path fill="none" stroke="black" d="M651.66,-110.83C726.11,-116.56 810.7,-123.55 887.65,-131 933.86,-135.48 983.93,-140.95 1029.9,-146.24"/>
<polygon fill="black" stroke="black" points="1029.34,-149.7 1039.67,-147.37 1030.14,-142.74 1029.34,-149.7"/>
</g>
<!-- N6 -->
<g id="node8" class="node">
<title>N6</title>
<polygon fill="#39a4fc" stroke="#39a4fc" points="665.53,-18.54 665.53,-33.46 535.66,-44 351.99,-44 222.12,-33.46 222.12,-18.54 351.99,-8 535.66,-8 665.53,-18.54"/>
<polygon fill="none" stroke="#39a4fc" points="669.53,-14.86 669.53,-37.14 535.82,-48 351.83,-48 218.12,-37.14 218.12,-14.86 351.83,-4 535.82,-4 669.53,-14.86"/>
<polygon fill="none" stroke="#39a4fc" points="673.53,-11.17 673.53,-40.83 535.98,-52 351.67,-52 214.12,-40.83 214.12,-11.17 351.67,0 535.98,0 673.53,-11.17"/>
<text text-anchor="middle" x="443.82" y="-21.32" font-family="Times,serif" font-size="14.00" fill="#000000">/run/current&#45;system, today (475.1 MB)</text>
</g>
<!-- N6&#45;&gt;N5 -->
<g id="edge1" class="edge">
<title>N6&#45;&gt;N5</title>
<path fill="none" stroke="black" d="M673.94,-33.06C743.13,-38.15 818.94,-46.7 887.65,-61 978.71,-79.95 1080,-118.48 1139.95,-143.23"/>
<polygon fill="black" stroke="black" points="1138.31,-146.34 1148.89,-146.95 1141,-139.88 1138.31,-146.34"/>
</g>
<!-- N14 -->
<g id="node9" class="node">
<title>N14</title>
<polygon fill="#4392fe" stroke="#4392fe" points="594.35,-578.54 594.35,-593.46 506.17,-604 381.47,-604 293.3,-593.46 293.3,-578.54 381.47,-568 506.17,-568 594.35,-578.54"/>
<polygon fill="none" stroke="#4392fe" points="598.35,-574.99 598.35,-597.01 506.41,-608 381.24,-608 289.3,-597.01 289.3,-574.99 381.24,-564 506.41,-564 598.35,-574.99"/>
<polygon fill="none" stroke="#4392fe" points="602.35,-571.44 602.35,-600.56 506.65,-612 381,-612 285.3,-600.56 285.3,-571.44 381,-560 506.65,-560 602.35,-571.44"/>
<text text-anchor="middle" x="443.82" y="-581.33" font-family="Times,serif" font-size="14.00" fill="#000000">{filtered out} (360.8 MB)</text>
</g>
<!-- N1 -->
<g id="node10" class="node">
<title>N1</title>
<polygon fill="#7a0403" stroke="#7a0403" points="1705.65,-324 1499.9,-324 1499.9,-288 1705.65,-288 1705.65,-324"/>
<text text-anchor="middle" x="1602.77" y="-301.32" font-family="Times,serif" font-size="14.00" fill="#ffffff">xwayland&#45;24.1.4 (10.4 GB)</text>
</g>
<!-- N2 -->
<g id="node11" class="node">
<title>N2</title>
<polygon fill="#73fe5e" stroke="#73fe5e" points="1910.65,-359 1741.65,-359 1741.65,-323 1910.65,-323 1910.65,-359"/>
<text text-anchor="middle" x="1826.15" y="-336.32" font-family="Times,serif" font-size="14.00" fill="#000000">coreutils&#45;9.5 (2.0 GB)</text>
</g>
<!-- N1&#45;&gt;N2 -->
<g id="edge14" class="edge">
<title>N1&#45;&gt;N2</title>
<path fill="none" stroke="black" d="M1706.04,-322.17C1714.05,-323.43 1722.11,-324.71 1730.07,-325.97"/>
<polygon fill="black" stroke="black" points="1729.31,-329.39 1739.74,-327.5 1730.4,-322.48 1729.31,-329.39"/>
</g>
<!-- N3&#45;&gt;N2 -->
<g id="edge13" class="edge">
<title>N3&#45;&gt;N2</title>
<path fill="none" stroke="black" d="M1677.49,-364.35C1694.39,-361.67 1712.58,-358.8 1730.23,-356.01"/>
<polygon fill="black" stroke="black" points="1730.61,-359.49 1739.94,-354.47 1729.52,-352.58 1730.61,-359.49"/>
</g>
<!-- N4&#45;&gt;N1 -->
<g id="edge12" class="edge">
<title>N4&#45;&gt;N1</title>
<path fill="none" stroke="black" d="M1305.72,-306C1362.43,-306 1431.33,-306 1488.38,-306"/>
<polygon fill="black" stroke="black" points="1488.12,-309.5 1498.12,-306 1488.12,-302.5 1488.12,-309.5"/>
</g>
<!-- N4&#45;&gt;N3 -->
<g id="edge11" class="edge">
<title>N4&#45;&gt;N3</title>
<path fill="none" stroke="black" d="M1302.24,-324.48C1369.45,-336.04 1454.79,-350.72 1517.17,-361.45"/>
<polygon fill="black" stroke="black" points="1516.21,-364.83 1526.66,-363.08 1517.39,-357.94 1516.21,-364.83"/>
</g>
<!-- N5&#45;&gt;N1 -->
<g id="edge6" class="edge">
<title>N5&#45;&gt;N1</title>
<path fill="none" stroke="black" d="M1248.4,-184.45C1322.98,-210.1 1457.81,-256.48 1537.62,-283.93"/>
<polygon fill="black" stroke="black" points="1536,-287.08 1546.6,-287.02 1538.28,-280.46 1536,-287.08"/>
</g>
</g>
</svg>
